<svg width="25" height="25" viewBox="0 0 25 25" fill="none" xmlns="http://www.w3.org/2000/svg">
<path d="M9.79583 20.1119C9.7814 21.3544 10.777 22.3734 12.0196 22.3878C13.2621 22.4023 14.2811 21.4067 14.2955 20.1641C14.31 18.9216 13.3144 17.9026 12.0718 17.8881C10.8292 17.8737 9.81026 18.8693 9.79583 20.1119Z" fill="#00421D"/>
<path d="M17.7952 20.2048C17.7808 21.4473 18.7764 22.4663 20.0189 22.4807C21.2615 22.4952 22.2805 21.4996 22.2949 20.257C22.3093 19.0145 21.3138 17.9955 20.0712 17.981C18.8286 17.9666 17.8097 18.9622 17.7952 20.2048Z" fill="#00421D"/>
<path d="M1.79632 20.019C1.78189 21.2615 2.77748 22.2805 4.02004 22.2949C5.2626 22.3094 6.28159 21.3138 6.29602 20.0712C6.31045 18.8287 5.31485 17.8097 4.0723 17.7953C2.82974 17.7808 1.81075 18.7764 1.79632 20.019Z" fill="#00421D"/>
<path d="M9.98162 4.11294C9.96719 5.35549 10.9628 6.37448 12.2053 6.38891C13.4479 6.40334 14.4669 5.40775 14.4813 4.16519C14.4957 2.92264 13.5002 1.90365 12.2576 1.88922C11.015 1.87479 9.99605 2.87038 9.98162 4.11294Z" fill="#00421D"/>
<path d="M11.3074 19.1294C11.3026 19.5393 11.6387 19.8832 12.0486 19.888C12.4586 19.8928 12.8025 19.5567 12.8073 19.1468L12.8915 11.8973L17.1412 11.9466C18.7211 11.965 19.3833 12.6427 19.3649 14.2226L19.3068 19.2222C19.3021 19.6322 19.6381 19.9761 20.0481 19.9809C20.4581 19.9857 20.802 19.6496 20.8067 19.2397L20.8648 14.24C20.8929 11.8202 19.5784 10.4748 17.1586 10.4467L12.9089 10.3974L12.9699 5.14771C12.9746 4.73774 12.6386 4.39382 12.2286 4.38905C11.8186 4.38429 11.4747 4.72032 11.47 5.1303L11.409 10.3799L7.15928 10.3306C4.73944 10.3025 3.39409 11.617 3.36599 14.0368L3.30793 19.0365C3.30317 19.4464 3.6392 19.7904 4.04917 19.7951C4.45914 19.7999 4.80307 19.4638 4.80783 19.0539L4.86589 14.0542C4.88423 12.4743 5.56197 11.8121 7.14186 11.8305L11.3916 11.8798L11.3074 19.1294Z" fill="#00421D"/>
</svg>
