<svg width="22" height="24" viewBox="0 0 22 24" fill="none" xmlns="http://www.w3.org/2000/svg">
<path d="M12.075 7.09171C11.6193 6.6361 10.8807 6.6361 10.425 7.09171C9.96943 7.54732 9.96943 8.28601 10.425 8.74162L12.5168 10.8333H1.91667C1.27233 10.8333 0.75 11.3557 0.75 12C0.75 12.6443 1.27233 13.1667 1.91667 13.1667H12.5168L10.425 15.2584C9.96943 15.714 9.96943 16.4527 10.425 16.9083C10.8807 17.3639 11.6193 17.3639 12.075 16.9083L15.3333 13.6499C16.2446 12.7387 16.2446 11.2613 15.3333 10.3501L12.075 7.09171Z" fill="#00421D"/>
<path fill-rule="evenodd" clip-rule="evenodd" d="M21.75 3.83331C21.75 1.90032 20.183 0.333313 18.25 0.333313H11.25C9.317 0.333313 7.75 1.90032 7.75 3.83331V4.99998C7.75 5.64431 8.27233 6.16665 8.91667 6.16665C9.561 6.16665 10.0833 5.64431 10.0833 4.99998V3.83331C10.0833 3.18898 10.6057 2.66665 11.25 2.66665H18.25C18.8943 2.66665 19.4167 3.18898 19.4167 3.83331V20.1666C19.4167 20.811 18.8943 21.3333 18.25 21.3333H11.25C10.6057 21.3333 10.0833 20.811 10.0833 20.1666V19C10.0833 18.3556 9.561 17.8333 8.91667 17.8333C8.27233 17.8333 7.75 18.3556 7.75 19V20.1666C7.75 22.0996 9.317 23.6666 11.25 23.6666H18.25C20.183 23.6666 21.75 22.0996 21.75 20.1666V3.83331Z" fill="#00421D"/>
</svg>
