<svg width="21" height="14" viewBox="0 0 21 14" fill="none" xmlns="http://www.w3.org/2000/svg">
<g clip-path="url(#clip0_39_175)">
<path fill-rule="evenodd" clip-rule="evenodd" d="M4.6665 1.16667C4.6665 0.522334 5.18884 0 5.83317 0H19.8332C20.4775 0 20.9998 0.522334 20.9998 1.16667C20.9998 1.811 20.4775 2.33333 19.8332 2.33333H5.83317C5.18884 2.33333 4.6665 1.811 4.6665 1.16667Z" fill="#00421D"/>
<path fill-rule="evenodd" clip-rule="evenodd" d="M4.6665 7.00001C4.6665 6.35568 5.18884 5.83334 5.83317 5.83334H19.8332C20.4775 5.83334 20.9998 6.35568 20.9998 7.00001C20.9998 7.64434 20.4775 8.16668 19.8332 8.16668H5.83317C5.18884 8.16668 4.6665 7.64434 4.6665 7.00001Z" fill="#00421D"/>
<path fill-rule="evenodd" clip-rule="evenodd" d="M4.6665 12.8333C4.6665 12.189 5.18884 11.6667 5.83317 11.6667H19.8332C20.4775 11.6667 20.9998 12.189 20.9998 12.8333C20.9998 13.4777 20.4775 14 19.8332 14H5.83317C5.18884 14 4.6665 13.4777 4.6665 12.8333Z" fill="#00421D"/>
<circle cx="1.16667" cy="1.16667" r="1.16667" fill="#00421D"/>
<circle cx="1.16667" cy="7.00001" r="1.16667" fill="#00421D"/>
<circle cx="1.16667" cy="12.8333" r="1.16667" fill="#00421D"/>
</g>
<defs>
<clipPath id="clip0_39_175">
<rect width="21" height="14" fill="white"/>
</clipPath>
</defs>
</svg>
