<svg width="35" height="31" viewBox="0 0 35 31" fill="none" xmlns="http://www.w3.org/2000/svg">
<path d="M25.8333 8.71879C27.7951 8.71879 29.3854 7.12847 29.3854 5.16671C29.3854 3.20495 27.7951 1.61462 25.8333 1.61462C23.8716 1.61462 22.2812 3.20495 22.2812 5.16671C22.2812 7.12847 23.8716 8.71879 25.8333 8.71879Z" fill="#00421D"/>
<path d="M24.5933 10.5271C22.5654 10.088 20.9121 8.43462 20.4729 6.40671C20.305 5.61879 20.2921 4.85671 20.4341 4.13337C20.6021 3.33254 20.0079 2.58337 19.1812 2.58337H9.04165C5.47665 2.58337 2.58331 5.47671 2.58331 9.04171V18.0188C2.58331 21.5838 5.47665 24.4771 9.04165 24.4771H10.9791C11.3408 24.4771 11.8058 24.7096 12.0125 24.9938L13.95 27.5642C14.8025 28.7009 16.1975 28.7009 17.05 27.5642L18.9875 24.9938C19.2329 24.6709 19.6075 24.4771 20.0208 24.4771H21.9712C25.5362 24.4771 28.4166 21.5967 28.4166 18.0317V11.8188C28.4166 11.005 27.6675 10.4109 26.8666 10.5659C26.1433 10.695 25.3812 10.695 24.5933 10.5271ZM10.3333 15.5C9.60998 15.5 9.04165 14.9188 9.04165 14.2084C9.04165 13.498 9.60998 12.9167 10.3333 12.9167C11.0437 12.9167 11.625 13.498 11.625 14.2084C11.625 14.9188 11.0566 15.5 10.3333 15.5ZM15.5 15.5C14.7766 15.5 14.2083 14.9188 14.2083 14.2084C14.2083 13.498 14.7766 12.9167 15.5 12.9167C16.2104 12.9167 16.7916 13.498 16.7916 14.2084C16.7916 14.9188 16.2233 15.5 15.5 15.5ZM20.6666 15.5C19.9433 15.5 19.375 14.9188 19.375 14.2084C19.375 13.498 19.9433 12.9167 20.6666 12.9167C21.3771 12.9167 21.9583 13.498 21.9583 14.2084C21.9583 14.9188 21.39 15.5 20.6666 15.5Z" fill="#00421D"/>
</svg>
