<svg width="36" height="32" viewBox="0 0 36 32" fill="none" xmlns="http://www.w3.org/2000/svg">
<path fill-rule="evenodd" clip-rule="evenodd" d="M11.0996 9.33118L9.08944 6.59002C8.95274 6.40361 8.69441 6.35611 8.50033 6.48169C5.87043 8.18339 5.14751 10.7828 6.20261 12.6991C7.35651 14.7948 9.1362 17.3649 11.866 20.0948C14.5958 22.8246 17.166 24.6043 19.2617 25.7582C21.1779 26.8133 23.7774 26.0903 25.4791 23.4604C25.6047 23.2664 25.5572 23.008 25.3708 22.8713L22.6296 20.8612C22.2265 20.5656 21.6919 20.5203 21.2448 20.7438L20.1522 21.2901C19.2229 21.7548 17.949 21.918 16.7431 21.2976C15.9369 20.8828 14.6943 20.0946 13.2802 18.6805C11.8662 17.2665 11.0779 16.0239 10.6632 15.2177C10.0428 14.0118 10.206 12.7379 10.6707 11.8085L11.217 10.7159C11.4405 10.2688 11.3952 9.73427 11.0996 9.33118ZM7.05166 4.24283C3.66431 6.43465 1.92064 10.451 3.86663 13.9853C5.13667 16.2919 7.06578 19.0658 9.9804 21.9804C12.895 24.895 15.6688 26.8241 17.9755 28.0941C21.5098 30.0401 25.5261 28.2965 27.7179 24.9091C28.6107 23.5293 28.273 21.6928 26.9477 20.7209L24.2066 18.7107C22.9973 17.8239 21.3936 17.688 20.0523 18.3587L18.9597 18.905C18.6434 19.0631 18.2775 19.0881 17.963 18.9263C17.3902 18.6316 16.3749 18.004 15.1658 16.7949C13.9568 15.5859 13.3292 14.5706 13.0344 13.9977C12.8727 13.6833 12.8977 13.3174 13.0558 13.0011L13.6021 11.9085C14.2728 10.5672 14.1368 8.9635 13.25 7.75421L11.2398 5.01305C10.268 3.68779 8.43143 3.35004 7.05166 4.24283Z" fill="#00421D"/>
</svg>
