<svg width="32" height="28" viewBox="0 0 32 28" fill="none" xmlns="http://www.w3.org/2000/svg">
<path fill-rule="evenodd" clip-rule="evenodd" d="M15.8889 0C7.29777 0 0.333313 6.26801 0.333313 14C0.333313 21.732 7.29777 28 15.8889 28C24.48 28 31.4444 21.732 31.4444 14C31.4444 6.26801 24.48 0 15.8889 0ZM3.83648 11.2C3.58054 12.0949 3.44442 13.0332 3.44442 14C3.44442 14.9668 3.58054 15.9051 3.83648 16.8H8.25781C8.1613 15.8929 8.11109 14.956 8.11109 14C8.11109 13.044 8.1613 12.1071 8.25781 11.2H3.83648ZM5.10927 8.4H8.72269C9.05243 6.96709 9.50739 5.65631 10.0676 4.52186C10.1614 4.33203 10.2587 4.14571 10.3598 3.96339C8.16229 4.94586 6.33324 6.49571 5.10927 8.4ZM11.3847 11.2C11.279 12.0926 11.2222 13.0301 11.2222 14C11.2222 14.9699 11.279 15.9074 11.3847 16.8H20.393C20.4987 15.9074 20.5555 14.9699 20.5555 14C20.5555 13.0301 20.4987 12.0926 20.393 11.2H11.3847ZM19.8685 8.4H11.9092C12.1794 7.37471 12.5192 6.45156 12.9106 5.65905C13.4208 4.6259 13.988 3.87649 14.5393 3.40432C15.0825 2.93902 15.5359 2.8 15.8889 2.8C16.2418 2.8 16.6952 2.93902 17.2385 3.40432C17.7897 3.87649 18.357 4.6259 18.8672 5.65905C19.2585 6.45156 19.5984 7.37471 19.8685 8.4ZM23.5199 11.2C23.6164 12.1071 23.6666 13.044 23.6666 14C23.6666 14.956 23.6164 15.8929 23.5199 16.8H27.9413C28.1972 15.9051 28.3333 14.9668 28.3333 14C28.3333 13.0332 28.1972 12.0949 27.9413 11.2H23.5199ZM26.6685 8.4H23.055C22.7253 6.96709 22.2704 5.65631 21.7101 4.52186C21.6164 4.33203 21.519 4.14571 21.4179 3.96339C23.6154 4.94586 25.4445 6.49571 26.6685 8.4ZM10.3598 24.0366C8.16229 23.0541 6.33324 21.5043 5.10927 19.6H8.72269C9.05243 21.0329 9.50739 22.3437 10.0676 23.4781C10.1614 23.668 10.2587 23.8543 10.3598 24.0366ZM12.9106 22.341C12.5192 21.5484 12.1794 20.6253 11.9092 19.6H19.8685C19.5984 20.6253 19.2585 21.5484 18.8672 22.341C18.357 23.3741 17.7897 24.1235 17.2385 24.5957C16.6952 25.061 16.2418 25.2 15.8889 25.2C15.5359 25.2 15.0825 25.061 14.5393 24.5957C13.988 24.1235 13.4208 23.3741 12.9106 22.341ZM21.7101 23.4781C22.2704 22.3437 22.7253 21.0329 23.055 19.6H26.6685C25.4445 21.5043 23.6154 23.0541 21.4179 24.0366C21.519 23.8543 21.6164 23.668 21.7101 23.4781Z" fill="#00421D"/>
</svg>
